<?xml version="1.0" encoding="UTF-8"?>
<svg id="Layer_1" xmlns="http://www.w3.org/2000/svg" xmlns:xlink="http://www.w3.org/1999/xlink" version="1.1" viewBox="0 0 2047.7 1152">
  <!-- Generator: Adobe Illustrator 29.2.1, SVG Export Plug-In . SVG Version: 2.1.0 Build 116)  -->
  <defs>
    <style>
      .st0, .st1, .st2 {
        fill: none;
      }

      .st3 {
        clip-path: url(#clippath-1);
      }

      .st1 {
        stroke: #787878;
        stroke-linecap: round;
        stroke-width: .5px;
      }

      .st1, .st2 {
        stroke-miterlimit: 10;
      }

      .st4 {
        fill: #fff;
      }

      .st5 {
        fill: #a5a7aa;
      }

      .st6 {
        fill: #787878;
      }

      .st7 {
        clip-path: url(#clippath);
      }

      .st2 {
        stroke: #fff;
        stroke-width: 2px;
      }
    </style>
    <clipPath id="clippath">
      <rect class="st0" x="511.2" width="1536.5" height="1152"/>
    </clipPath>
    <clipPath id="clippath-1">
      <rect class="st0" x="0" width="511.2" height="1152"/>
    </clipPath>
  </defs>
  <rect x="0" width="2047.7" height="1152"/>
  <g class="st7">
    <g>
      <line class="st1" x1="2317.1" y1="4.3" x2="1218.4" y2="1321.2"/>
      <line class="st1" x1="1109.3" y1="1176.6" x2="2155.7" y2="42.7"/>
      <line class="st1" x1="2100.9" y1="-26.2" x2="869.6" y2="1178.3"/>
      <line class="st1" x1="2221.8" y1="293.2" x2="1565.7" y2="1176.7"/>
      <line class="st1" x1="2004.9" y1="-48.8" x2="632.7" y2="1180"/>
      <line class="st1" x1="1895.7" y1="-57.5" x2="397.8" y2="1192.4"/>
      <line class="st1" x1="2231" y1="500.6" x2="1765.4" y2="1230.5"/>
      <line class="st1" x1="1834.7" y1="-102.4" x2="415.9" y2="994.8"/>
      <line class="st1" x1="1733" y1="-113.5" x2="394.7" y2="867.4"/>
      <line class="st1" x1="1630.5" y1="-112.6" x2="418.4" y2="702.3"/>
      <line class="st1" x1="1484" y1="-98.2" x2="337.1" y2="644.7"/>
      <line class="st1" x1="1340" y1="-83" x2="362.5" y2="521.8"/>
      <line class="st1" x1="359.4" y1="771.2" x2="2063.5" y2="1150.6"/>
      <line class="st1" x1="231.8" y1="668.4" x2="2223.4" y2="1016.9"/>
      <line class="st1" x1="372.7" y1="606.5" x2="2244.9" y2="920.1"/>
      <line class="st1" x1="362.5" y1="521.8" x2="2215.7" y2="818.7"/>
      <line class="st1" x1="298.1" y1="434.6" x2="2209.5" y2="734.2"/>
      <line class="st1" x1="198.2" y1="355.8" x2="2228" y2="657.7"/>
      <line class="st1" x1="384.5" y1="318.5" x2="2239.5" y2="587.4"/>
      <line class="st1" x1="333.7" y1="254.2" x2="2254.5" y2="519.4"/>
      <line class="st1" x1="356.6" y1="194.9" x2="2178.4" y2="448"/>
      <line class="st1" x1="297.3" y1="132.2" x2="2208.6" y2="389"/>
      <line class="st1" x1="2210.7" y1="341.9" x2="408.2" y2="74"/>
      <line class="st1" x1="2190.8" y1="289.7" x2="410.8" y2="22.1"/>
      <line class="st1" x1="432.8" y1="-12.7" x2="2204.7" y2="242.5"/>
      <line class="st1" x1="431.7" y1="888.6" x2="1704.5" y2="1201.5"/>
    </g>
  </g>
  <g class="st3">
    <image width="2048" height="1152" transform="translate(-393)" xlink:href="../../../Design Templates/TomorrowWall-Background.png"/>
  </g>
  <g>
    <path class="st4" d="M141.5,170.9c-1.4,1-2.9,2-4.4,2.7-1.6.8-3.3,1.4-5.2,1.8s-4,.6-6.3.6c-3.6,0-6.9-.7-9.9-2-3-1.3-5.7-3.1-7.9-5.4-2.2-2.3-4-4.9-5.2-8-1.3-3.1-1.9-6.4-1.9-9.9s.6-6.8,1.9-9.9c1.2-3.1,3-5.8,5.2-8.1,2.2-2.3,4.9-4.1,8-5.5,3.1-1.3,6.5-2,10.2-2s4.3.2,6.1.6c1.8.4,3.5.9,5.1,1.6,1.5.7,3,1.5,4.3,2.4,1.3.9,2.5,2,3.7,3.1l-5.5,6.4c-2-1.8-4-3.3-6.2-4.4-2.2-1.1-4.7-1.7-7.5-1.7s-4.5.5-6.5,1.4c-2,.9-3.7,2.1-5.1,3.7-1.4,1.6-2.6,3.4-3.4,5.5-.8,2.1-1.2,4.4-1.2,6.8s.4,4.7,1.2,6.8c.8,2.1,1.9,4,3.4,5.6,1.4,1.6,3.2,2.8,5.1,3.7,2,.9,4.1,1.4,6.5,1.4s5.6-.6,7.7-1.7c2.1-1.1,4.3-2.7,6.4-4.7l5.5,5.6c-1.3,1.4-2.6,2.6-4,3.6Z"/>
    <path class="st4" d="M195.6,153.9c0,3.6-.5,6.8-1.5,9.6-1,2.8-2.4,5.1-4.2,6.9-1.8,1.8-4,3.2-6.6,4.1-2.6.9-5.5,1.4-8.7,1.4s-6-.5-8.6-1.4c-2.6-.9-4.8-2.3-6.6-4.1-1.8-1.8-3.2-4.1-4.2-6.8-1-2.7-1.5-5.8-1.5-9.3v-28.2h8.5v27.9c0,4.6,1.1,8,3.3,10.4,2.2,2.4,5.3,3.6,9.2,3.6s6.9-1.1,9.1-3.4c2.2-2.3,3.3-5.7,3.3-10.2v-28.2h8.5v27.8Z"/>
    <path class="st4" d="M215.2,141.4c.3.7.9,1.4,1.8,2,.9.6,2.1,1.2,3.6,1.7,1.5.5,3.5,1,5.8,1.6,2.6.7,4.9,1.4,6.8,2.2,2,.8,3.6,1.8,4.9,2.9,1.3,1.1,2.3,2.5,3,4,.7,1.5,1,3.3,1,5.4s-.4,4.4-1.3,6.2c-.9,1.8-2,3.4-3.6,4.6s-3.4,2.2-5.5,2.9c-2.1.7-4.5,1-7.1,1-3.8,0-7.4-.6-10.9-1.9-3.5-1.3-6.6-3.3-9.6-5.9l5.2-6.2c2.4,2.1,4.8,3.6,7.2,4.7,2.4,1.1,5.2,1.6,8.3,1.6s4.8-.6,6.3-1.7c1.6-1.1,2.3-2.6,2.3-4.6s-.2-1.7-.5-2.4c-.3-.7-.9-1.3-1.7-1.9-.8-.6-1.9-1.1-3.4-1.6-1.4-.5-3.3-1.1-5.6-1.6-2.6-.6-4.9-1.3-7-2-2-.7-3.7-1.7-5.1-2.8s-2.4-2.5-3.2-4.1c-.7-1.6-1.1-3.5-1.1-5.8s.4-4.1,1.2-5.8,2-3.3,3.4-4.5c1.5-1.3,3.2-2.2,5.3-2.9,2-.7,4.3-1,6.7-1,3.6,0,6.8.5,9.7,1.6,2.9,1.1,5.6,2.6,8.1,4.6l-4.6,6.5c-2.2-1.6-4.5-2.9-6.6-3.7-2.2-.9-4.4-1.3-6.6-1.3s-4.5.6-5.9,1.7c-1.4,1.1-2.1,2.5-2.1,4.2s.2,1.8.5,2.5Z"/>
    <path class="st4" d="M271.9,175.1h-8.7v-41h-15.5v-8h39.8v8h-15.5v41Z"/>
    <path class="st4" d="M341.1,160.3c-1.3,3.1-3,5.8-5.3,8.1-2.3,2.3-5,4.1-8.1,5.5-3.1,1.4-6.6,2-10.4,2s-7.2-.7-10.4-2c-3.1-1.3-5.8-3.1-8-5.4-2.2-2.3-4-5-5.2-8-1.3-3.1-1.9-6.3-1.9-9.8s.6-6.7,1.9-9.8c1.3-3.1,3-5.8,5.3-8.1,2.3-2.3,5-4.1,8.1-5.5,3.1-1.4,6.6-2,10.4-2s7.2.7,10.4,2c3.1,1.3,5.8,3.1,8,5.4,2.2,2.3,4,5,5.2,8,1.3,3.1,1.9,6.3,1.9,9.8s-.6,6.7-1.9,9.8ZM332.7,143.9c-.8-2.1-2-4-3.4-5.6-1.5-1.6-3.2-2.8-5.3-3.8-2.1-.9-4.3-1.4-6.7-1.4s-4.7.5-6.7,1.4c-2,.9-3.8,2.1-5.2,3.7-1.4,1.6-2.6,3.4-3.4,5.5-.8,2.1-1.2,4.4-1.2,6.8s.4,4.6,1.2,6.8c.8,2.1,2,4,3.4,5.6,1.5,1.6,3.2,2.8,5.3,3.8,2.1.9,4.3,1.4,6.7,1.4s4.7-.5,6.7-1.4c2-.9,3.8-2.1,5.2-3.7,1.4-1.6,2.6-3.4,3.4-5.5.8-2.1,1.2-4.4,1.2-6.8s-.4-4.6-1.2-6.8Z"/>
    <path class="st4" d="M377.6,163.1h-.3l-15.3-23v35h-8.5v-49h9.2l14.9,23.2,14.9-23.2h9.2v49h-8.5v-35.1l-15.5,23.1Z"/>
    <path class="st4" d="M423.2,126.1v49h-8.5v-49h8.5Z"/>
    <path class="st4" d="M435.5,133.7v-7.6h39.2v6.4l-28.9,35h28.9v7.6h-40.1v-6.4l28.9-35h-28Z"/>
    <path class="st4" d="M521.8,133.9h-27.7v12.6h24.6v7.8h-24.6v13.1h28.1v7.8h-36.6v-49h36.3v7.8Z"/>
    <path class="st4" d="M576.5,175.1h-8.7v-19.3l-19.5-29.7h10.2l13.7,21.7,13.9-21.7h9.9l-19.5,29.5v19.5Z"/>
    <path class="st4" d="M646.5,160.3c-1.3,3.1-3,5.8-5.3,8.1-2.3,2.3-5,4.1-8.1,5.5-3.1,1.4-6.6,2-10.4,2s-7.2-.7-10.4-2c-3.1-1.3-5.8-3.1-8-5.4-2.2-2.3-4-5-5.2-8-1.3-3.1-1.9-6.3-1.9-9.8s.6-6.7,1.9-9.8c1.3-3.1,3-5.8,5.3-8.1,2.3-2.3,5-4.1,8.1-5.5,3.1-1.4,6.6-2,10.4-2s7.2.7,10.4,2c3.1,1.3,5.8,3.1,8,5.4,2.2,2.3,4,5,5.2,8,1.3,3.1,1.9,6.3,1.9,9.8s-.6,6.7-1.9,9.8ZM638.1,143.9c-.8-2.1-2-4-3.4-5.6-1.5-1.6-3.2-2.8-5.3-3.8-2.1-.9-4.3-1.4-6.7-1.4s-4.7.5-6.7,1.4c-2,.9-3.8,2.1-5.2,3.7-1.4,1.6-2.6,3.4-3.4,5.5-.8,2.1-1.2,4.4-1.2,6.8s.4,4.6,1.2,6.8c.8,2.1,2,4,3.4,5.6,1.5,1.6,3.2,2.8,5.3,3.8,2.1.9,4.3,1.4,6.7,1.4s4.7-.5,6.7-1.4c2-.9,3.8-2.1,5.2-3.7,1.4-1.6,2.6-3.4,3.4-5.5.8-2.1,1.2-4.4,1.2-6.8s-.4-4.6-1.2-6.8Z"/>
    <path class="st4" d="M700,153.9c0,3.6-.5,6.8-1.5,9.6-1,2.8-2.4,5.1-4.2,6.9-1.8,1.8-4,3.2-6.6,4.1-2.6.9-5.5,1.4-8.7,1.4s-6-.5-8.6-1.4c-2.6-.9-4.8-2.3-6.6-4.1-1.8-1.8-3.2-4.1-4.2-6.8-1-2.7-1.5-5.8-1.5-9.3v-28.2h8.5v27.9c0,4.6,1.1,8,3.3,10.4,2.2,2.4,5.3,3.6,9.2,3.6s6.9-1.1,9.1-3.4c2.2-2.3,3.3-5.7,3.3-10.2v-28.2h8.5v27.8Z"/>
    <path class="st4" d="M743.2,175.1l-12.1-17.1h-10.8v17.1h-8.5v-49h21.8c2.8,0,5.3.4,7.6,1.1,2.3.7,4.2,1.8,5.7,3.1,1.6,1.3,2.8,3,3.6,4.9.8,1.9,1.3,4.1,1.3,6.5s-.3,3.9-.9,5.5c-.6,1.6-1.4,3-2.4,4.3-1,1.2-2.3,2.3-3.7,3.1-1.4.9-3,1.5-4.7,2l13.2,18.5h-10.1ZM740.4,136c-1.8-1.4-4.3-2.1-7.5-2.1h-12.6v16.5h12.6c3.1,0,5.5-.7,7.4-2.2,1.8-1.5,2.7-3.5,2.7-6s-.9-4.8-2.7-6.2Z"/>
  </g>
  <g>
    <path class="st5" d="M101,75h4.9l4,6.5,4-6.5h4.9v16.8h-4.6v-9.6l-4.3,6.6h0l-4.3-6.5v9.6h-4.6v-16.8Z"/>
    <path class="st5" d="M127.6,74.9h4.5l7.2,16.9h-5l-1.2-3h-6.5l-1.2,3h-4.9l7.2-16.9ZM131.7,85.2l-1.9-4.8-1.9,4.8h3.8Z"/>
    <path class="st5" d="M140.9,75h6.5c6,0,9.5,3.5,9.5,8.3h0c0,4.9-3.5,8.5-9.6,8.5h-6.4v-16.8ZM147.5,87.7c2.8,0,4.6-1.5,4.6-4.2h0c0-2.7-1.8-4.3-4.6-4.3h-1.9v8.5h1.9Z"/>
    <path class="st5" d="M159.3,75h13.5v4h-8.9v2.5h8.1v3.7h-8.1v2.7h9v4h-13.6v-16.8Z"/>
    <path class="st5" d="M186,79.1h-5v-4.1h14.7v4.1h-5v12.7h-4.7v-12.7Z"/>
    <path class="st5" d="M197.2,83.5h0c0-4.9,3.9-8.8,9.1-8.8s9,3.9,9,8.7h0c0,4.9-3.9,8.8-9.1,8.8s-9-3.9-9-8.7ZM210.5,83.5h0c0-2.5-1.8-4.6-4.3-4.6s-4.2,2.1-4.2,4.5h0c0,2.5,1.8,4.6,4.3,4.6s4.3-2.1,4.3-4.5Z"/>
    <path class="st5" d="M223.8,83.5h0c0-4.9,3.9-8.8,9.1-8.8s9,3.9,9,8.7h0c0,4.9-3.9,8.8-9.1,8.8s-9-3.9-9-8.7ZM237.1,83.5h0c0-2.5-1.8-4.6-4.3-4.6s-4.2,2.1-4.2,4.5h0c0,2.5,1.8,4.6,4.3,4.6s4.3-2.1,4.3-4.5Z"/>
    <path class="st5" d="M244.3,75h7.9c2.6,0,4.3.7,5.5,1.8,1,1,1.5,2.3,1.5,3.9h0c0,2.6-1.4,4.3-3.5,5.2l4,5.9h-5.4l-3.4-5.1h-2v5.1h-4.7v-16.8ZM252,83.1c1.6,0,2.5-.8,2.5-2h0c0-1.4-1-2-2.5-2h-3v4h3.1Z"/>
    <path class="st5" d="M261.6,75h6.5c6,0,9.5,3.5,9.5,8.3h0c0,4.9-3.5,8.5-9.6,8.5h-6.4v-16.8ZM268.1,87.7c2.8,0,4.6-1.5,4.6-4.2h0c0-2.7-1.8-4.3-4.6-4.3h-1.9v8.5h1.9Z"/>
    <path class="st5" d="M279.9,75h13.5v4h-8.9v2.5h8.1v3.7h-8.1v2.7h9v4h-13.6v-16.8Z"/>
    <path class="st5" d="M295.9,75h7.9c2.6,0,4.3.7,5.5,1.8,1,1,1.5,2.3,1.5,3.9h0c0,2.6-1.4,4.3-3.5,5.2l4,5.9h-5.4l-3.4-5.1h-2v5.1h-4.7v-16.8ZM303.7,83.1c1.6,0,2.5-.8,2.5-2h0c0-1.4-1-2-2.5-2h-3v4h3.1Z"/>
  </g>
  <g>
    <path class="st4" d="M110.1,208.1c.3.7.9,1.4,1.8,2,.9.6,2.1,1.2,3.6,1.7,1.5.5,3.5,1,5.8,1.6,2.6.7,4.9,1.4,6.8,2.2,2,.8,3.6,1.8,4.9,2.9,1.3,1.1,2.3,2.5,3,4,.7,1.5,1,3.3,1,5.4s-.4,4.4-1.3,6.2c-.9,1.8-2,3.4-3.6,4.6s-3.4,2.2-5.5,2.9c-2.1.7-4.5,1-7.1,1-3.8,0-7.4-.6-10.9-1.9-3.5-1.3-6.6-3.3-9.6-5.9l5.2-6.2c2.4,2.1,4.8,3.6,7.2,4.7,2.4,1.1,5.2,1.6,8.3,1.6s4.8-.6,6.3-1.7c1.6-1.1,2.3-2.6,2.3-4.5s-.2-1.7-.5-2.4c-.3-.7-.9-1.3-1.7-1.9-.8-.6-1.9-1.1-3.4-1.6-1.4-.5-3.3-1-5.6-1.6-2.6-.6-4.9-1.3-7-2-2-.7-3.7-1.7-5.1-2.8-1.4-1.1-2.4-2.5-3.2-4.1-.7-1.6-1.1-3.5-1.1-5.8s.4-4.1,1.2-5.8,2-3.3,3.4-4.5c1.5-1.3,3.2-2.2,5.3-2.9,2-.7,4.3-1,6.7-1,3.6,0,6.8.5,9.7,1.6,2.9,1.1,5.6,2.6,8.1,4.6l-4.6,6.5c-2.2-1.6-4.5-2.9-6.6-3.7-2.2-.9-4.4-1.3-6.6-1.3s-4.5.6-5.9,1.7c-1.4,1.1-2.1,2.5-2.1,4.2s.2,1.8.5,2.5Z"/>
    <path class="st4" d="M171.4,229.7h-.3l-15.3-23v35h-8.5v-49h9.2l14.9,23.2,14.9-23.2h9.2v49h-8.5v-35.1l-15.5,23.1Z"/>
    <path class="st4" d="M254.9,241.7h-9.1l-5-11.8h-23.2l-5,11.8h-8.8l21.6-49.4h8l21.6,49.4ZM229.2,202.7l-8.4,19.6h16.9l-8.5-19.6Z"/>
    <path class="st4" d="M294.7,241.7l-12.1-17.1h-10.8v17.1h-8.5v-49h21.8c2.8,0,5.3.4,7.6,1.1,2.3.7,4.2,1.8,5.7,3.1,1.6,1.3,2.8,3,3.6,4.9.8,1.9,1.3,4.1,1.3,6.5s-.3,3.9-.9,5.5c-.6,1.6-1.4,3-2.4,4.3-1,1.2-2.3,2.3-3.7,3.1-1.4.9-3,1.5-4.7,2l13.2,18.5h-10.1ZM291.9,202.6c-1.8-1.4-4.3-2.1-7.5-2.1h-12.6v16.5h12.6c3.1,0,5.5-.7,7.4-2.2,1.8-1.5,2.7-3.5,2.7-6s-.9-4.8-2.7-6.2Z"/>
    <path class="st4" d="M334.4,241.7h-8.7v-41h-15.5v-8h39.8v8h-15.5v41Z"/>
    <path class="st4" d="M411.5,241.7l-12.1-17.1h-10.8v17.1h-8.5v-49h21.8c2.8,0,5.3.4,7.6,1.1,2.3.7,4.2,1.8,5.7,3.1,1.6,1.3,2.8,3,3.6,4.9.8,1.9,1.3,4.1,1.3,6.5s-.3,3.9-.9,5.5c-.6,1.6-1.4,3-2.4,4.3-1,1.2-2.3,2.3-3.7,3.1-1.4.9-3,1.5-4.7,2l13.2,18.5h-10.1ZM408.7,202.6c-1.8-1.4-4.3-2.1-7.5-2.1h-12.6v16.5h12.6c3.1,0,5.5-.7,7.4-2.2,1.8-1.5,2.7-3.5,2.7-6s-.9-4.8-2.7-6.2Z"/>
    <path class="st4" d="M477.8,227c-1.3,3.1-3,5.8-5.3,8.1-2.3,2.3-5,4.1-8.1,5.5-3.1,1.4-6.6,2-10.4,2s-7.2-.7-10.4-2c-3.1-1.3-5.8-3.1-8-5.4-2.2-2.3-4-5-5.2-8.1-1.3-3.1-1.9-6.3-1.9-9.8s.6-6.7,1.9-9.8c1.3-3.1,3-5.8,5.3-8.1,2.3-2.3,5-4.1,8.1-5.5,3.1-1.4,6.6-2,10.4-2s7.2.7,10.4,2c3.1,1.3,5.8,3.1,8,5.4,2.2,2.3,4,5,5.2,8.1,1.3,3.1,1.9,6.3,1.9,9.8s-.6,6.7-1.9,9.8ZM469.5,210.6c-.8-2.1-2-4-3.4-5.6-1.5-1.6-3.2-2.8-5.3-3.8-2.1-.9-4.3-1.4-6.7-1.4s-4.7.5-6.7,1.4c-2,.9-3.8,2.1-5.2,3.7-1.4,1.6-2.6,3.4-3.4,5.5-.8,2.1-1.2,4.4-1.2,6.8s.4,4.6,1.2,6.8c.8,2.1,2,4,3.4,5.6,1.5,1.6,3.2,2.8,5.3,3.8,2.1.9,4.3,1.4,6.7,1.4s4.7-.5,6.7-1.4c2-.9,3.8-2.1,5.2-3.7,1.4-1.6,2.6-3.4,3.4-5.5.8-2.1,1.2-4.4,1.2-6.8s-.4-4.6-1.2-6.8Z"/>
    <path class="st4" d="M521.9,192.7h9.3l-20.4,49.4h-7.6l-20.4-49.4h9.5l14.8,37.7,14.7-37.7Z"/>
    <path class="st4" d="M575.9,200.5h-27.7v12.6h24.6v7.8h-24.6v13.1h28.1v7.8h-36.6v-49h36.3v7.8Z"/>
    <path class="st4" d="M618,241.7l-12.1-17.1h-10.8v17.1h-8.5v-49h21.8c2.8,0,5.3.4,7.6,1.1,2.3.7,4.2,1.8,5.7,3.1,1.6,1.3,2.8,3,3.6,4.9.8,1.9,1.3,4.1,1.3,6.5s-.3,3.9-.9,5.5c-.6,1.6-1.4,3-2.4,4.3-1,1.2-2.3,2.3-3.7,3.1-1.4.9-3,1.5-4.7,2l13.2,18.5h-10.1ZM615.2,202.6c-1.8-1.4-4.3-2.1-7.5-2.1h-12.6v16.5h12.6c3.1,0,5.5-.7,7.4-2.2,1.8-1.5,2.7-3.5,2.7-6s-.9-4.8-2.7-6.2Z"/>
  </g>
  <polygon class="st2" points="44 1112.9 61.7 1112.9 61.7 1093.4 77.1 1093.4 77.1 1112.9 94.8 1112.9 94.8 1080.3 69.4 1060.2 44 1080.3 44 1112.9"/>
  <g>
    <path class="st4" d="M234.6,586.7l-7.8-20.2h-.1c.1,1.6.2,3.5.2,5.7v14.5h-2.5v-22.8h4l7.2,18.8h.1l7.3-18.8h4v22.8h-2.7v-14.7c0-1.7,0-3.5.2-5.5h-.1l-7.8,20.2h-2.1Z"/>
    <path class="st4" d="M267.7,578.2c0,2.8-.7,5-2.1,6.5s-3.3,2.4-5.8,2.4-2.9-.4-4.1-1.1-2.1-1.8-2.8-3.1c-.6-1.3-1-2.9-1-4.7,0-2.8.7-5,2.1-6.5,1.4-1.6,3.3-2.3,5.8-2.3s4.3.8,5.7,2.4c1.4,1.6,2.1,3.8,2.1,6.5ZM254.7,578.2c0,2.2.4,3.9,1.3,5s2.2,1.7,3.9,1.7,3-.6,3.9-1.7c.9-1.1,1.3-2.8,1.3-5s-.4-3.8-1.3-5c-.9-1.1-2.2-1.7-3.9-1.7s-3,.6-3.8,1.7c-.9,1.1-1.3,2.8-1.3,5Z"/>
    <path class="st4" d="M283.9,584.5h-.1c-1.2,1.7-3,2.6-5.4,2.6s-4-.8-5.2-2.3c-1.2-1.5-1.9-3.7-1.9-6.5s.6-5,1.9-6.6,3-2.3,5.2-2.3,4.1.8,5.3,2.5h.2v-1.2c-.1,0-.2-1.2-.2-1.2v-7h2.6v24.3h-2.1l-.3-2.3ZM278.8,584.9c1.8,0,3.1-.5,3.9-1.4s1.2-2.5,1.2-4.7v-.5c0-2.4-.4-4.2-1.2-5.2-.8-1-2.1-1.6-3.9-1.6s-2.7.6-3.5,1.8c-.8,1.2-1.2,2.9-1.2,5s.4,3.8,1.2,5c.8,1.1,2,1.7,3.5,1.7Z"/>
    <path class="st4" d="M294.3,569.6v11.1c0,1.4.3,2.4,1,3.1.6.7,1.6,1,3,1s3.1-.5,3.9-1.5,1.2-2.6,1.2-4.8v-9h2.6v17.1h-2.1l-.4-2.3h-.1c-.5.8-1.3,1.5-2.2,1.9-.9.4-2,.7-3.2.7-2.1,0-3.6-.5-4.7-1.5-1-1-1.6-2.6-1.6-4.8v-11.2h2.6Z"/>
    <path class="st4" d="M314.1,586.7h-2.6v-24.3h2.6v24.3Z"/>
    <path class="st4" d="M326.9,587.1c-2.5,0-4.5-.8-6-2.3-1.5-1.5-2.2-3.7-2.2-6.4s.7-5,2-6.6,3.2-2.4,5.5-2.4,3.8.7,5.1,2.1,1.9,3.3,1.9,5.6v1.6h-11.8c0,2,.6,3.5,1.5,4.6,1,1,2.3,1.6,4.1,1.6s3.7-.4,5.5-1.2v2.3c-.9.4-1.8.7-2.6.9-.8.2-1.8.3-3,.3ZM326.2,571.5c-1.4,0-2.5.4-3.3,1.3-.8.9-1.3,2.1-1.4,3.7h9c0-1.6-.4-2.9-1.1-3.8-.7-.9-1.8-1.3-3.1-1.3Z"/>
    <path class="st4" d="M356.1,566c-2.5,0-4.5.8-5.9,2.5s-2.2,4-2.2,6.9.7,5.3,2.1,6.9c1.4,1.6,3.4,2.4,6,2.4s3.4-.3,5.5-.9v2.3c-1.6.6-3.5.9-5.9.9-3.4,0-6-1-7.8-3.1s-2.7-4.9-2.7-8.7.4-4.4,1.3-6.2c.9-1.8,2.2-3.1,3.8-4.1,1.7-1,3.6-1.4,5.9-1.4s4.5.4,6.3,1.3l-1.1,2.3c-1.7-.8-3.5-1.2-5.2-1.2Z"/>
    <path class="st4" d="M380.9,578.2c0,2.8-.7,5-2.1,6.5s-3.3,2.4-5.8,2.4-2.9-.4-4.1-1.1-2.1-1.8-2.8-3.1c-.6-1.3-1-2.9-1-4.7,0-2.8.7-5,2.1-6.5,1.4-1.6,3.3-2.3,5.8-2.3s4.3.8,5.7,2.4c1.4,1.6,2.1,3.8,2.1,6.5ZM367.8,578.2c0,2.2.4,3.9,1.3,5s2.2,1.7,3.9,1.7,3-.6,3.9-1.7c.9-1.1,1.3-2.8,1.3-5s-.4-3.8-1.3-5c-.9-1.1-2.2-1.7-3.9-1.7s-3,.6-3.8,1.7c-.9,1.1-1.3,2.8-1.3,5Z"/>
    <path class="st4" d="M388,586.7h-2.6v-24.3h2.6v24.3Z"/>
    <path class="st4" d="M408.3,578.2c0,2.8-.7,5-2.1,6.5s-3.3,2.4-5.8,2.4-2.9-.4-4.1-1.1-2.1-1.8-2.8-3.1c-.6-1.3-1-2.9-1-4.7,0-2.8.7-5,2.1-6.5,1.4-1.6,3.3-2.3,5.8-2.3s4.3.8,5.7,2.4c1.4,1.6,2.1,3.8,2.1,6.5ZM395.2,578.2c0,2.2.4,3.9,1.3,5s2.2,1.7,3.9,1.7,3-.6,3.9-1.7c.9-1.1,1.3-2.8,1.3-5s-.4-3.8-1.3-5c-.9-1.1-2.2-1.7-3.9-1.7s-3,.6-3.8,1.7c-.9,1.1-1.3,2.8-1.3,5Z"/>
    <path class="st4" d="M420.6,569.3c.8,0,1.4,0,2,.2l-.4,2.4c-.7-.2-1.3-.2-1.9-.2-1.4,0-2.6.6-3.6,1.7s-1.5,2.5-1.5,4.2v9.2h-2.6v-17.1h2.1l.3,3.2h.1c.6-1.1,1.4-2,2.3-2.6.9-.6,1.9-.9,3-.9Z"/>
    <path class="st4" d="M245.6,650.7v-22.8h2.7v22.8h-2.7Z"/>
    <path class="st4" d="M261,651.1c-2.5,0-4.4-.8-5.8-2.3s-2-3.7-2-6.5.7-5.1,2.1-6.6c1.4-1.6,3.3-2.3,5.9-2.3s1.6,0,2.5.3c.8.2,1.5.4,1.9.6l-.8,2.2c-.6-.2-1.2-.4-1.9-.6-.7-.2-1.3-.2-1.8-.2-3.5,0-5.2,2.2-5.2,6.7s.4,3.7,1.3,4.8c.8,1.1,2.1,1.7,3.8,1.7s2.9-.3,4.4-.9v2.3c-1.1.6-2.6.9-4.3.9Z"/>
    <path class="st4" d="M284.2,642.2c0,2.8-.7,5-2.1,6.5s-3.3,2.4-5.8,2.4-2.9-.4-4.1-1.1-2.1-1.8-2.8-3.1c-.6-1.3-1-2.9-1-4.7,0-2.8.7-5,2.1-6.5,1.4-1.6,3.3-2.3,5.8-2.3s4.3.8,5.7,2.4c1.4,1.6,2.1,3.8,2.1,6.5ZM271.1,642.2c0,2.2.4,3.9,1.3,5s2.2,1.7,3.9,1.7,3-.6,3.9-1.7c.9-1.1,1.3-2.8,1.3-5s-.4-3.8-1.3-5c-.9-1.1-2.2-1.7-3.9-1.7s-3,.6-3.8,1.7c-.9,1.1-1.3,2.8-1.3,5Z"/>
    <path class="st4" d="M300.4,650.7v-11.1c0-1.4-.3-2.4-1-3.1-.6-.7-1.6-1-3-1s-3.1.5-3.9,1.5c-.8,1-1.2,2.6-1.2,4.8v9h-2.6v-17.1h2.1l.4,2.3h.1c.5-.8,1.3-1.5,2.2-2,1-.5,2-.7,3.2-.7,2.1,0,3.6.5,4.7,1.5,1,1,1.6,2.6,1.6,4.8v11.2h-2.6Z"/>
    <path class="st4" d="M329.8,650.7h-12.7v-22.8h12.7v2.4h-10.1v7.4h9.5v2.3h-9.5v8.4h10.1v2.4Z"/>
    <path class="st4" d="M340,648.9c.5,0,.9,0,1.3-.1.4,0,.8-.1,1-.2v2c-.3.1-.7.2-1.2.3-.5,0-1,.1-1.5.1-3.3,0-5-1.7-5-5.2v-10.2h-2.5v-1.2l2.5-1.1,1.1-3.7h1.5v4h5v2h-5v10.1c0,1,.2,1.8.7,2.4.5.6,1.2.8,2,.8Z"/>
    <path class="st4" d="M352.6,651.1c-2.5,0-4.4-.8-5.8-2.3s-2-3.7-2-6.5.7-5.1,2.1-6.6c1.4-1.6,3.3-2.3,5.9-2.3s1.6,0,2.5.3c.8.2,1.5.4,1.9.6l-.8,2.2c-.6-.2-1.2-.4-1.9-.6-.7-.2-1.3-.2-1.8-.2-3.5,0-5.2,2.2-5.2,6.7s.4,3.7,1.3,4.8c.8,1.1,2.1,1.7,3.8,1.7s2.9-.3,4.4-.9v2.3c-1.1.6-2.6.9-4.3.9Z"/>
    <path class="st4" d="M372.7,650.7v-11.1c0-1.4-.3-2.4-1-3.1-.6-.7-1.6-1-3-1s-3.1.5-3.9,1.5-1.2,2.6-1.2,4.8v9h-2.6v-24.3h2.6v7.4c0,.9,0,1.6-.1,2.2h.2c.5-.8,1.2-1.5,2.2-1.9.9-.5,2-.7,3.2-.7,2.1,0,3.7.5,4.7,1.5s1.6,2.6,1.6,4.7v11.2h-2.6Z"/>
    <path class="st4" d="M380.4,629c0-.6.1-1,.4-1.3.3-.3.7-.4,1.1-.4s.8.1,1.1.4c.3.3.5.7.5,1.3s-.2,1-.5,1.3c-.3.3-.7.4-1.1.4s-.8-.1-1.1-.4c-.3-.3-.4-.7-.4-1.3ZM383.2,650.7h-2.6v-17.1h2.6v17.1Z"/>
    <path class="st4" d="M400.4,650.7v-11.1c0-1.4-.3-2.4-1-3.1-.6-.7-1.6-1-3-1s-3.1.5-3.9,1.5c-.8,1-1.2,2.6-1.2,4.8v9h-2.6v-17.1h2.1l.4,2.3h.1c.5-.8,1.3-1.5,2.2-2,1-.5,2-.7,3.2-.7,2.1,0,3.6.5,4.7,1.5,1,1,1.6,2.6,1.6,4.8v11.2h-2.6Z"/>
    <path class="st4" d="M422.4,633.6v1.6l-3.2.4c.3.4.6.8.8,1.4.2.6.3,1.3.3,2,0,1.7-.6,3-1.7,4-1.1,1-2.7,1.5-4.7,1.5s-1,0-1.4-.1c-1.1.6-1.7,1.3-1.7,2.2s.2.8.6,1c.4.2,1,.3,2,.3h3c1.9,0,3.3.4,4.3,1.2,1,.8,1.5,1.9,1.5,3.4s-.8,3.3-2.3,4.3c-1.5,1-3.7,1.5-6.7,1.5s-4-.4-5.2-1.2c-1.2-.8-1.8-2-1.8-3.5s.3-1.9,1-2.7c.7-.8,1.6-1.3,2.8-1.5-.4-.2-.8-.5-1.1-.9s-.4-.9-.4-1.5.2-1.2.5-1.6c.3-.5.9-.9,1.6-1.4-.9-.4-1.6-1-2.2-1.9-.6-.9-.8-1.9-.8-3,0-1.9.6-3.3,1.7-4.3s2.7-1.5,4.8-1.5,1.7.1,2.4.3h5.9ZM408.7,653.6c0,.9.4,1.6,1.2,2.1.8.5,1.9.7,3.4.7,2.2,0,3.8-.3,4.8-1,1-.7,1.6-1.5,1.6-2.6s-.3-1.6-.9-1.9c-.6-.4-1.7-.5-3.2-.5h-3.1c-1.2,0-2.1.3-2.8.8s-1,1.4-1,2.4ZM410.1,639.1c0,1.2.3,2.1,1,2.7.7.6,1.6.9,2.8.9,2.5,0,3.8-1.2,3.8-3.7s-1.3-3.9-3.8-3.9-2.2.3-2.8,1-1,1.6-1,2.9Z"/>
    <path class="st4" d="M328,703.3c0,3.7-.9,6.5-2.8,8.6-1.8,2.1-4.4,3.1-7.7,3.1s-6-1-7.8-3.1-2.7-5-2.7-8.7.9-6.6,2.8-8.6c1.8-2,4.4-3.1,7.8-3.1s5.8,1,7.7,3.1,2.8,5,2.8,8.6ZM309.8,703.3c0,3.1.7,5.4,2,7,1.3,1.6,3.2,2.4,5.7,2.4s4.4-.8,5.7-2.4c1.3-1.6,1.9-3.9,1.9-7s-.6-5.4-1.9-7c-1.3-1.6-3.2-2.4-5.7-2.4s-4.5.8-5.8,2.4c-1.3,1.6-2,3.9-2,7Z"/>
    <path class="st4" d="M340.6,715.1c-1.1,0-2.1-.2-3.1-.6s-1.7-1-2.3-1.9h-.2c.1,1,.2,1.9.2,2.8v7h-2.6v-24.8h2.1l.4,2.3h.1c.7-.9,1.4-1.6,2.3-2,.9-.4,1.9-.6,3-.6,2.3,0,4,.8,5.3,2.3s1.9,3.7,1.9,6.5-.6,5-1.9,6.6c-1.3,1.6-3,2.3-5.2,2.3ZM340.3,699.5c-1.8,0-3,.5-3.8,1.5s-1.2,2.5-1.2,4.6v.6c0,2.4.4,4.1,1.2,5.2.8,1,2.1,1.6,3.9,1.6s2.6-.6,3.5-1.8c.8-1.2,1.3-2.8,1.3-5s-.4-3.8-1.3-4.9c-.8-1.1-2-1.7-3.5-1.7Z"/>
    <path class="st4" d="M357.8,712.9c.5,0,.9,0,1.3-.1.4,0,.8-.1,1-.2v2c-.3.1-.7.2-1.2.3-.5,0-1,.1-1.5.1-3.3,0-5-1.7-5-5.2v-10.2h-2.5v-1.2l2.5-1.1,1.1-3.7h1.5v4h5v2h-5v10.1c0,1,.2,1.8.7,2.4.5.6,1.2.8,2,.8Z"/>
    <path class="st4" d="M363.4,693c0-.6.1-1,.4-1.3.3-.3.7-.4,1.1-.4s.8.1,1.1.4c.3.3.5.7.5,1.3s-.2,1-.5,1.3c-.3.3-.7.4-1.1.4s-.8-.1-1.1-.4c-.3-.3-.4-.7-.4-1.3ZM366.2,714.7h-2.6v-17.1h2.6v17.1Z"/>
    <path class="st4" d="M386.4,706.2c0,2.8-.7,5-2.1,6.5s-3.3,2.4-5.8,2.4-2.9-.4-4.1-1.1-2.1-1.8-2.8-3.1c-.6-1.3-1-2.9-1-4.7,0-2.8.7-5,2.1-6.5,1.4-1.6,3.3-2.3,5.8-2.3s4.3.8,5.7,2.4c1.4,1.6,2.1,3.8,2.1,6.5ZM373.4,706.2c0,2.2.4,3.9,1.3,5s2.2,1.7,3.9,1.7,3-.6,3.9-1.7c.9-1.1,1.3-2.8,1.3-5s-.4-3.8-1.3-5c-.9-1.1-2.2-1.7-3.9-1.7s-3,.6-3.8,1.7c-.9,1.1-1.3,2.8-1.3,5Z"/>
    <path class="st4" d="M402.7,714.7v-11.1c0-1.4-.3-2.4-1-3.1-.6-.7-1.6-1-3-1s-3.1.5-3.9,1.5c-.8,1-1.2,2.6-1.2,4.8v9h-2.6v-17.1h2.1l.4,2.3h.1c.5-.8,1.3-1.5,2.2-2,1-.5,2-.7,3.2-.7,2.1,0,3.6.5,4.7,1.5,1,1,1.6,2.6,1.6,4.8v11.2h-2.6Z"/>
    <path class="st4" d="M421.7,710.1c0,1.6-.6,2.8-1.8,3.7s-2.9,1.3-5,1.3-4-.4-5.3-1.1v-2.4c.8.4,1.7.7,2.6,1,.9.2,1.9.4,2.7.4,1.4,0,2.4-.2,3.1-.6.7-.4,1.1-1.1,1.1-2s-.3-1.2-.9-1.7-1.7-1-3.4-1.7c-1.6-.6-2.7-1.1-3.4-1.6s-1.2-.9-1.5-1.5-.5-1.2-.5-2c0-1.4.6-2.5,1.7-3.3,1.1-.8,2.7-1.2,4.7-1.2s3.6.4,5.4,1.1l-.9,2.1c-1.7-.7-3.3-1.1-4.7-1.1s-2.2.2-2.8.6-.9.9-.9,1.6.1.8.4,1.2.6.6,1.1.9c.5.3,1.5.7,3,1.3,2,.7,3.4,1.5,4.1,2.2.7.8,1.1,1.7,1.1,2.8Z"/>
    <path class="st4" d="M192.2,767.3c0,3.7-.9,6.5-2.8,8.6-1.8,2.1-4.4,3.1-7.7,3.1s-6-1-7.8-3.1-2.7-5-2.7-8.7.9-6.6,2.8-8.6c1.8-2,4.4-3.1,7.8-3.1s5.8,1,7.7,3.1,2.8,5,2.8,8.6ZM174,767.3c0,3.1.7,5.4,2,7,1.3,1.6,3.2,2.4,5.7,2.4s4.4-.8,5.7-2.4c1.3-1.6,1.9-3.9,1.9-7s-.6-5.4-1.9-7c-1.3-1.6-3.2-2.4-5.7-2.4s-4.5.8-5.8,2.4c-1.3,1.6-2,3.9-2,7Z"/>
    <path class="st4" d="M204.7,761.3c.8,0,1.4,0,2,.2l-.4,2.4c-.7-.2-1.3-.2-1.9-.2-1.4,0-2.6.6-3.6,1.7s-1.5,2.5-1.5,4.2v9.2h-2.6v-17.1h2.1l.3,3.2h.1c.6-1.1,1.4-2,2.3-2.6.9-.6,1.9-.9,3-.9Z"/>
    <path class="st4" d="M221.6,776.5h-.1c-1.2,1.7-3,2.6-5.4,2.6s-4-.8-5.2-2.3c-1.2-1.5-1.9-3.7-1.9-6.5s.6-5,1.9-6.6,3-2.3,5.2-2.3,4.1.8,5.3,2.5h.2v-1.2c-.1,0-.2-1.2-.2-1.2v-7h2.6v24.3h-2.1l-.3-2.3ZM216.4,776.9c1.8,0,3.1-.5,3.9-1.4s1.2-2.5,1.2-4.7v-.5c0-2.4-.4-4.2-1.2-5.2-.8-1-2.1-1.6-3.9-1.6s-2.7.6-3.5,1.8c-.8,1.2-1.2,2.9-1.2,5s.4,3.8,1.2,5c.8,1.1,2,1.7,3.5,1.7Z"/>
    <path class="st4" d="M236.8,779.1c-2.5,0-4.5-.8-6-2.3-1.5-1.5-2.2-3.7-2.2-6.4s.7-5,2-6.6,3.2-2.4,5.5-2.4,3.8.7,5.1,2.1,1.9,3.3,1.9,5.6v1.6h-11.8c0,2,.6,3.5,1.5,4.6,1,1,2.3,1.6,4.1,1.6s3.7-.4,5.5-1.2v2.3c-.9.4-1.8.7-2.6.9-.8.2-1.8.3-3,.3ZM236.1,763.5c-1.4,0-2.5.4-3.3,1.3-.8.9-1.3,2.1-1.4,3.7h9c0-1.6-.4-2.9-1.1-3.8-.7-.9-1.8-1.3-3.1-1.3Z"/>
    <path class="st4" d="M255.3,761.3c.8,0,1.4,0,2,.2l-.4,2.4c-.7-.2-1.3-.2-1.9-.2-1.4,0-2.6.6-3.6,1.7s-1.5,2.5-1.5,4.2v9.2h-2.6v-17.1h2.1l.3,3.2h.1c.6-1.1,1.4-2,2.3-2.6.9-.6,1.9-.9,3-.9Z"/>
    <path class="st4" d="M283.8,762.6c0,2.3-.8,4.1-2.4,5.3s-3.8,1.9-6.8,1.9h-2.7v9h-2.7v-22.8h5.9c5.7,0,8.6,2.2,8.6,6.7ZM271.9,767.5h2.4c2.4,0,4.1-.4,5.1-1.1,1.1-.8,1.6-2,1.6-3.7s-.5-2.6-1.5-3.4c-1-.7-2.5-1.1-4.6-1.1h-3v9.3Z"/>
    <path class="st4" d="M290.8,778.7h-2.6v-24.3h2.6v24.3Z"/>
    <path class="st4" d="M306.8,778.7l-.5-2.4h-.1c-.9,1.1-1.7,1.8-2.6,2.2-.8.4-1.9.6-3.2.6s-3-.4-4-1.3c-1-.9-1.4-2.1-1.4-3.7,0-3.5,2.8-5.3,8.3-5.4h2.9v-1.2c0-1.3-.3-2.3-.9-3s-1.5-1-2.8-1-3,.4-4.8,1.3l-.8-2c.8-.5,1.8-.8,2.8-1.1,1-.3,2-.4,3-.4,2,0,3.6.5,4.5,1.4s1.5,2.4,1.5,4.4v11.7h-1.9ZM300.9,776.9c1.6,0,2.9-.4,3.8-1.3s1.4-2.1,1.4-3.7v-1.5h-2.6c-2.1.2-3.5.5-4.5,1.1-.9.6-1.4,1.5-1.4,2.6s.3,1.7.9,2.1c.6.5,1.4.7,2.4.7Z"/>
    <path class="st4" d="M320.9,779.1c-2.5,0-4.4-.8-5.8-2.3s-2-3.7-2-6.5.7-5.1,2.1-6.6c1.4-1.6,3.3-2.3,5.9-2.3s1.6,0,2.5.3c.8.2,1.5.4,1.9.6l-.8,2.2c-.6-.2-1.2-.4-1.9-.6-.7-.2-1.3-.2-1.8-.2-3.5,0-5.2,2.2-5.2,6.7s.4,3.7,1.3,4.8c.8,1.1,2.1,1.7,3.8,1.7s2.9-.3,4.4-.9v2.3c-1.1.6-2.6.9-4.3.9Z"/>
    <path class="st4" d="M336.5,779.1c-2.5,0-4.5-.8-6-2.3-1.5-1.5-2.2-3.7-2.2-6.4s.7-5,2-6.6,3.2-2.4,5.5-2.4,3.8.7,5.1,2.1,1.9,3.3,1.9,5.6v1.6h-11.8c0,2,.6,3.5,1.5,4.6,1,1,2.3,1.6,4.1,1.6s3.7-.4,5.5-1.2v2.3c-.9.4-1.8.7-2.6.9-.8.2-1.8.3-3,.3ZM335.8,763.5c-1.4,0-2.5.4-3.3,1.3-.8.9-1.3,2.1-1.4,3.7h9c0-1.6-.4-2.9-1.1-3.8-.7-.9-1.8-1.3-3.1-1.3Z"/>
    <path class="st4" d="M369.1,778.7v-11.1c0-1.4-.3-2.4-.9-3.1-.6-.7-1.5-1-2.7-1s-2.8.5-3.6,1.4c-.8.9-1.2,2.4-1.2,4.3v9.6h-2.6v-11.1c0-1.4-.3-2.4-.9-3.1-.6-.7-1.5-1-2.7-1s-2.8.5-3.6,1.5c-.8,1-1.1,2.6-1.1,4.8v9h-2.6v-17.1h2.1l.4,2.3h.1c.5-.8,1.2-1.5,2.1-2s1.9-.7,3-.7c2.7,0,4.4,1,5.2,2.9h.1c.5-.9,1.2-1.6,2.2-2.1s2.1-.8,3.3-.8c1.9,0,3.4.5,4.4,1.5,1,1,1.4,2.6,1.4,4.8v11.2h-2.6Z"/>
    <path class="st4" d="M384.2,779.1c-2.5,0-4.5-.8-6-2.3-1.5-1.5-2.2-3.7-2.2-6.4s.7-5,2-6.6,3.2-2.4,5.5-2.4,3.8.7,5.1,2.1,1.9,3.3,1.9,5.6v1.6h-11.8c0,2,.6,3.5,1.5,4.6,1,1,2.3,1.6,4.1,1.6s3.7-.4,5.5-1.2v2.3c-.9.4-1.8.7-2.6.9-.8.2-1.8.3-3,.3ZM383.5,763.5c-1.4,0-2.5.4-3.3,1.3-.8.9-1.3,2.1-1.4,3.7h9c0-1.6-.4-2.9-1.1-3.8-.7-.9-1.8-1.3-3.1-1.3Z"/>
    <path class="st4" d="M406.7,778.7v-11.1c0-1.4-.3-2.4-1-3.1-.6-.7-1.6-1-3-1s-3.1.5-3.9,1.5c-.8,1-1.2,2.6-1.2,4.8v9h-2.6v-17.1h2.1l.4,2.3h.1c.5-.8,1.3-1.5,2.2-2,1-.5,2-.7,3.2-.7,2.1,0,3.6.5,4.7,1.5,1,1,1.6,2.6,1.6,4.8v11.2h-2.6Z"/>
    <path class="st4" d="M420.1,776.9c.5,0,.9,0,1.3-.1.4,0,.8-.1,1-.2v2c-.3.1-.7.2-1.2.3-.5,0-1,.1-1.5.1-3.3,0-5-1.7-5-5.2v-10.2h-2.5v-1.2l2.5-1.1,1.1-3.7h1.5v4h5v2h-5v10.1c0,1,.2,1.8.7,2.4.5.6,1.2.8,2,.8Z"/>
  </g>
  <circle class="st6" cx="454.3" cy="640.8" r="12.2"/>
  <circle class="st6" cx="454.3" cy="705" r="12.2"/>
  <circle class="st6" cx="454.3" cy="576.5" r="12.2"/>
  <circle class="st6" cx="454.3" cy="769.3" r="12.2"/>
  <polyline class="st2" points="437.6 1060.8 464 1087.2 437.6 1113.5"/>
  <polyline class="st2" points="382 1113.5 355.7 1087.2 382 1060.8"/>
</svg>